<?xml version="1.0" encoding="UTF-8"?>
<svg width="50px" height="50px" viewBox="0 0 50 50" version="1.1" xmlns="http://www.w3.org/2000/svg" xmlns:xlink="http://www.w3.org/1999/xlink">
    <!-- Generator: Sketch 48.2 (47327) - http://www.bohemiancoding.com/sketch -->
    <title>google-analytics-3</title>
    <desc>Created with Sketch.</desc>
    <defs>
        <linearGradient x1="0%" y1="50%" x2="100%" y2="50%" id="linearGradient-1">
            <stop stop-color="#FFFFFF" stop-opacity="0.1" offset="0%"></stop>
            <stop stop-color="#FFFFFF" stop-opacity="0" offset="100%"></stop>
        </linearGradient>
        <linearGradient x1="-43.1445709%" y1="28.4691997%" x2="86.4416694%" y2="93.1377177%" id="linearGradient-2">
            <stop stop-color="#44A2F2" offset="0%"></stop>
            <stop stop-color="#225DF6" stop-opacity="0.02" offset="100%"></stop>
        </linearGradient>
        <linearGradient x1="33.5322368%" y1="33.5730263%" x2="98.2203947%" y2="98.2611842%" id="linearGradient-3">
            <stop stop-color="#FFFFFF" stop-opacity="0.1" offset="0%"></stop>
            <stop stop-color="#FFFFFF" stop-opacity="0" offset="100%"></stop>
        </linearGradient>
    </defs>
    <g id="index" stroke="none" stroke-width="1" fill="none" fill-rule="evenodd" transform="translate(-84.000000, -26.000000)">
        <g id="google-analytics-3" transform="translate(84.000000, 26.000000)" fill-rule="nonzero">
            <path d="M45.6862745,0 L36.6339869,0 C34.4444444,0 32.6470588,1.79738562 32.6470588,3.9869281 L32.6470588,15.6862745 L19.5424837,15.6862745 C17.4183007,15.6862745 15.6862745,17.4183007 15.6862745,19.5751634 L15.6862745,32.6797386 L3.88888889,32.6797386 C1.73202614,32.6797386 0,34.4117647 0,36.5686275 L0,45.7189542 C0,47.875817 1.73202614,49.6078431 3.88888889,49.6732026 L45.7189542,49.6732026 C47.9084967,49.6732026 49.7058824,47.875817 49.7058824,45.6862745 L49.7058824,3.9869281 C49.6732026,1.79738562 47.875817,0 45.6862745,0 Z" id="Shape" fill="url(#linearGradient-1)"></path>
            <path d="M45.6862745,0 L36.6339869,0 C34.4444444,0 32.6470588,1.79738562 32.6470588,3.9869281 L32.6470588,15.6862745 L19.5424837,15.6862745 C17.4183007,15.6862745 15.6862745,17.4183007 15.6862745,19.5751634 L15.6862745,32.6797386 L3.88888889,32.6797386 C1.73202614,32.6797386 0,34.4117647 0,36.5686275 L0,45.7189542 C0,47.875817 1.73202614,49.6078431 3.88888889,49.6732026 L45.7189542,49.6732026 C47.9084967,49.6732026 49.7058824,47.875817 49.7058824,45.6862745 L49.7058824,3.9869281 C49.6732026,1.79738562 47.875817,0 45.6862745,0 Z" id="Shape" fill="url(#linearGradient-1)"></path>
            <g id="Group">
                <path d="M45.6862745,0 L36.6993464,0 C34.5098039,0 32.7124183,1.79738562 32.7124183,3.9869281 L32.7124183,49.6732026 L45.6862745,49.6732026 C47.875817,49.6732026 49.6732026,47.875817 49.6732026,45.6862745 L49.6732026,3.9869281 C49.6732026,1.79738562 47.875817,0 45.6862745,0 Z" id="Shape" fill="#48A7F8"></path>
                <path d="M15.6862745,19.6078431 L15.6862745,32.6797386 L3.92156863,32.6797386 C1.76470588,32.6797386 0,34.4444444 0,36.6013072 L0,45.751634 C0,47.9084967 1.76470588,49.6732026 3.92156863,49.6732026 L32.6797386,49.6732026 L32.6797386,15.6862745 L19.6078431,15.6862745 C17.4509804,15.6862745 15.6862745,17.4509804 15.6862745,19.6078431 Z" id="Shape" fill="#90CAFE"></path>
            </g>
            <path d="M32.6797386,15.6862745 L32.6797386,49.6732026 L45.6535948,49.6732026 C47.8431373,49.6732026 49.6405229,47.875817 49.6405229,45.6862745 L49.6405229,32.6797386 L32.6797386,15.6862745 Z" id="Shape" fill="url(#linearGradient-2)"></path>
            <path d="M19.6078431,16.0130719 L32.6797386,16.0130719 L32.6797386,15.6862745 L19.6078431,15.6862745 C17.4509804,15.6862745 15.6862745,17.4509804 15.6862745,19.6078431 L15.6862745,19.9346405 C15.6862745,17.7777778 17.4509804,16.0130719 19.6078431,16.0130719 Z" id="Shape" fill="#FFFFFF" opacity="0.2"></path>
            <path d="M3.92156863,33.0065359 L15.6862745,33.0065359 L15.6862745,32.6797386 L3.92156863,32.6797386 C1.76470588,32.6797386 0,34.4444444 0,36.6013072 L0,36.9281046 C0,34.7712418 1.76470588,33.0065359 3.92156863,33.0065359 Z" id="Shape" fill="#FFFFFF" opacity="0.2"></path>
            <path d="M45.6862745,0 L36.6993464,0 C34.5098039,0 32.7124183,1.79738562 32.7124183,3.9869281 L32.7124183,4.31372549 C32.7124183,2.12418301 34.5098039,0.326797386 36.6993464,0.326797386 L45.6862745,0.326797386 C47.875817,0.326797386 49.6732026,2.12418301 49.6732026,4.31372549 L49.6732026,3.9869281 C49.6732026,1.79738562 47.875817,0 45.6862745,0 Z" id="Shape" fill="#FFFFFF" opacity="0.2"></path>
            <path d="M45.6862745,0 L36.6993464,0 C34.5098039,0 32.7124183,1.79738562 32.7124183,3.9869281 L32.7124183,15.6862745 L19.6405229,15.6862745 C17.4836601,15.6862745 15.7189542,17.4509804 15.7189542,19.6078431 L15.7189542,32.6797386 L3.92156863,32.6797386 C1.76470588,32.6797386 0,34.4444444 0,36.6013072 L0,45.751634 C0,47.9084967 1.76470588,49.6732026 3.92156863,49.6732026 L45.6862745,49.6732026 C47.875817,49.6732026 49.6732026,47.875817 49.6732026,45.6862745 L49.6732026,3.9869281 C49.6732026,1.79738562 47.875817,0 45.6862745,0 Z" id="Shape" fill="url(#linearGradient-3)"></path>
        </g>
    </g>
</svg>