<?xml version="1.0" encoding="UTF-8"?>
<svg width="37px" height="36px" viewBox="0 0 37 36" version="1.1" xmlns="http://www.w3.org/2000/svg" xmlns:xlink="http://www.w3.org/1999/xlink">
    <!-- Generator: Sketch 48.2 (47327) - http://www.bohemiancoding.com/sketch -->
    <title>Product</title>
    <desc>Created with Sketch.</desc>
    <defs></defs>
    <g id="index" stroke="none" stroke-width="1" fill="none" fill-rule="evenodd" transform="translate(-90.000000, -274.000000)">
        <g id="Configuration" transform="translate(33.000000, 117.000000)" fill="#343532">
            <g id="asset-class" transform="translate(40.000000, 157.000000)">
                <g id="Select-Product" transform="translate(17.000000, 0.000000)">
                    <g id="Product">
                        <g id="19-Box_2">
                            <path d="M20.1363061,32.265 L20.1363061,16.0125 L33.7281429,10.485 L33.7281429,26.745 L20.1363061,32.265 Z M3.52406122,10.485 L8.43222449,12.48 L8.43222449,16.9725 C8.43222449,18.0075 9.27718367,18.8475 10.3199796,18.8475 C11.3627755,18.8475 12.2077347,18.0075 12.2077347,16.9725 L12.2077347,14.0175 L17.115898,16.0125 L17.115898,32.265 L3.52406122,26.745 L3.52406122,10.485 Z M18.626102,3.12 L22.4454082,4.6725 L9.82161224,9.8025 L6.00306122,8.25 L18.626102,3.12 Z M18.626102,13.38 L14.8067959,11.8275 L27.4305918,6.6975 L31.2491429,8.25 L18.626102,13.38 Z M35.8099592,6.8625 L19.1977143,0.1125 C18.8314898,-0.0375 18.4207143,-0.0375 18.0544898,0.1125 L1.4422449,6.8625 C0.874408163,7.095 0.503653061,7.6425 0.503653061,8.25 L0.503653061,27.75 C0.503653061,28.3575 0.874408163,28.9125 1.4422449,29.1375 L18.0544898,35.8875 C18.2372245,35.9625 18.4320408,36 18.626102,36 C18.8201633,36 19.0149796,35.9625 19.1977143,35.8875 L35.8099592,29.1375 C36.3777959,28.9125 36.748551,28.3575 36.748551,27.75 L36.748551,8.25 C36.748551,7.6425 36.3777959,7.095 35.8099592,6.8625 Z" id="Fill-211"></path>
                        </g>
                    </g>
                </g>
            </g>
        </g>
    </g>
</svg>