<?xml version="1.0" encoding="UTF-8"?>
<svg width="31px" height="39px" viewBox="0 0 31 39" version="1.1" xmlns="http://www.w3.org/2000/svg" xmlns:xlink="http://www.w3.org/1999/xlink">
    <!-- Generator: Sketch 48.2 (47327) - http://www.bohemiancoding.com/sketch -->
    <title>Strategy</title>
    <desc>Created with Sketch.</desc>
    <defs></defs>
    <g id="index" stroke="none" stroke-width="1" fill="none" fill-rule="evenodd" transform="translate(-90.000000, -617.000000)">
        <g id="Configuration" transform="translate(33.000000, 117.000000)" fill="#343532">
            <g id="Strategy" transform="translate(57.000000, 500.000000)">
                <g id="Select-Strategy">
                    <g id="Strategy">
                        <g id="3-Gesture_3">
                            <path d="M25.2282895,33.52375 C24.7347368,34.85625 23.4425263,35.75 22.0140789,35.75 L13.6065526,35.75 C12.2539737,35.75 11.0213158,35.0675 10.3075,33.921875 L3.46547368,22.953125 C3.32271053,22.725625 3.38144737,22.416875 3.60007895,22.2625 L4.42239474,21.66125 C5.01628947,21.32 5.77742105,21.4825 6.17307895,22.05125 C6.20571053,22.091875 6.24078947,22.140625 6.2775,22.18125 L8.87007895,25.163125 C9.38647368,25.813125 10.2479474,26.08125 11.0547632,25.829375 C11.8974737,25.569375 12.4636316,24.7975 12.4636316,23.92 L12.4636316,9.936875 C12.4636316,9.140625 13.1113684,8.49875 13.9067632,8.49875 C14.7021579,8.49875 15.3498947,9.140625 15.3498947,9.936875 L15.3498947,16.696875 C15.3498947,17.4525 15.8654737,18.1025 16.5972368,18.28125 L25.9869737,20.54 C26.7660526,20.735 27.3167105,21.43375 27.3273158,22.254375 C27.3721842,25.861875 26.6657105,29.648125 25.2282895,33.52375 Z M6.62992105,9.709375 C6.62992105,5.711875 9.89307895,2.461875 13.9067632,2.461875 C17.9204474,2.461875 21.1836053,5.711875 21.1836053,9.709375 C21.1836053,11.91125 20.1834474,13.885625 18.6130526,15.218125 L18.6130526,9.936875 C18.6130526,7.353125 16.5017895,5.24875 13.9067632,5.24875 C11.3117368,5.24875 9.20047368,7.353125 9.20047368,9.936875 L9.20047368,15.22625 C7.63089474,13.89375 6.62992105,11.919375 6.62992105,9.709375 Z M26.7554474,17.3875 L21.2407105,16.055 C22.7311579,14.356875 23.6309737,12.13875 23.6309737,9.709375 C23.6309737,4.37125 19.2665,0.024375 13.9067632,0.024375 C8.54702632,0.024375 4.18255263,4.37125 4.18255263,9.709375 C4.18255263,13.349375 6.21060526,16.518125 9.20047368,18.1675 L9.20047368,20.580625 L8.79421053,20.109375 C7.37718421,18.175625 4.69731579,17.655625 2.6505,18.93125 C2.61623684,18.9475 2.58278947,18.971875 2.54934211,18.99625 L1.66747368,19.638125 C0.0848421053,20.8 -0.342631579,23.01 0.694236842,24.6675 L7.53626316,35.63625 C8.84886842,37.740625 11.1183947,39 13.6065526,39 L22.0140789,39 C24.8024474,39 27.3240526,37.253125 28.2891316,34.653125 C29.8660526,30.40375 30.6402368,26.219375 30.5904737,22.21375 C30.5611053,19.90625 28.9841842,17.92375 26.7554474,17.3875 Z" id="Fill-386"></path>
                        </g>
                    </g>
                </g>
            </g>
        </g>
    </g>
</svg>