<?xml version="1.0" encoding="UTF-8"?>
<svg width="37px" height="33px" viewBox="0 0 37 33" version="1.1" xmlns="http://www.w3.org/2000/svg" xmlns:xlink="http://www.w3.org/1999/xlink">
    <!-- Generator: Sketch 48.2 (47327) - http://www.bohemiancoding.com/sketch -->
    <title>Date</title>
    <desc>Created with Sketch.</desc>
    <defs></defs>
    <g id="index" stroke="none" stroke-width="1" fill="none" fill-rule="evenodd" transform="translate(-90.000000, -137.000000)">
        <g id="Configuration" transform="translate(33.000000, 117.000000)" fill="#343532">
            <g id="Time/frequency" transform="translate(50.000000, 20.000000)">
                <g id="Time">
                    <g id="Selec-time" transform="translate(7.000000, 0.000000)">
                        <g id="Date">
                            <g id="7-Calendar">
                                <path d="M33.7281429,29.4375 L3.52406122,29.4375 L3.52406122,6 L8.05467347,6 L8.05467347,7.5 C8.05467347,8.3325 8.7312449,9 9.56487755,9 C10.3985102,9 11.0750816,8.3325 11.0750816,7.5 L11.0750816,6 L26.1771224,6 L26.1771224,7.5 C26.1771224,8.3325 26.8536939,9 27.6873265,9 C28.5209592,9 29.1975306,8.3325 29.1975306,7.5 L29.1975306,6 L33.7281429,6 L33.7281429,29.4375 Z M35.2383469,3 L29.1975306,3 L29.1975306,1.5 C29.1975306,0.675 28.5209592,0 27.6873265,0 C26.8536939,0 26.1771224,0.675 26.1771224,1.5 L26.1771224,3 L11.0750816,3 L11.0750816,1.5 C11.0750816,0.675 10.3985102,0 9.56487755,0 C8.7312449,0 8.05467347,0.675 8.05467347,1.5 L8.05467347,3 L2.01385714,3 C1.18022449,3 0.503653061,3.675 0.503653061,4.5 L0.503653061,30.9375 C0.503653061,31.77 1.18022449,32.4375 2.01385714,32.4375 L35.2383469,32.4375 C36.0719796,32.4375 36.748551,31.77 36.748551,30.9375 L36.748551,4.5 C36.748551,3.675 36.0719796,3 35.2383469,3 Z" id="Fill-83"></path>
                                <path d="M14.0954898,13.6425 C13.4695102,13.6425 12.9628367,14.145 12.9628367,14.7675 C12.9628367,15.39 13.4695102,15.8925 14.0954898,15.8925 C14.7214694,15.8925 15.2281429,15.39 15.2281429,14.7675 C15.2281429,14.145 14.7214694,13.6425 14.0954898,13.6425" id="Fill-84"></path>
                                <path d="M9.56487755,13.6425 C8.93889796,13.6425 8.43222449,14.145 8.43222449,14.7675 C8.43222449,15.39 8.93889796,15.8925 9.56487755,15.8925 C10.1908571,15.8925 10.6975306,15.39 10.6975306,14.7675 C10.6975306,14.145 10.1908571,13.6425 9.56487755,13.6425" id="Fill-85"></path>
                                <path d="M18.626102,18.1425 C18.0001224,18.1425 17.493449,18.645 17.493449,19.2675 C17.493449,19.89 18.0001224,20.3925 18.626102,20.3925 C19.2520816,20.3925 19.7587551,19.89 19.7587551,19.2675 C19.7587551,18.645 19.2520816,18.1425 18.626102,18.1425" id="Fill-86"></path>
                                <path d="M14.0954898,18.1425 C13.4695102,18.1425 12.9628367,18.645 12.9628367,19.2675 C12.9628367,19.89 13.4695102,20.3925 14.0954898,20.3925 C14.7214694,20.3925 15.2281429,19.89 15.2281429,19.2675 C15.2281429,18.645 14.7214694,18.1425 14.0954898,18.1425" id="Fill-87"></path>
                                <path d="M27.6873265,18.1425 C27.0613469,18.1425 26.5546735,18.645 26.5546735,19.2675 C26.5546735,19.89 27.0613469,20.3925 27.6873265,20.3925 C28.3133061,20.3925 28.8199796,19.89 28.8199796,19.2675 C28.8199796,18.645 28.3133061,18.1425 27.6873265,18.1425" id="Fill-88"></path>
                                <path d="M23.1567143,18.1425 C22.5307347,18.1425 22.0240612,18.645 22.0240612,19.2675 C22.0240612,19.89 22.5307347,20.3925 23.1567143,20.3925 C23.7826939,20.3925 24.2893673,19.89 24.2893673,19.2675 C24.2893673,18.645 23.7826939,18.1425 23.1567143,18.1425" id="Fill-89"></path>
                                <path d="M27.6873265,22.6425 C27.0613469,22.6425 26.5546735,23.145 26.5546735,23.7675 C26.5546735,24.39 27.0613469,24.8925 27.6873265,24.8925 C28.3133061,24.8925 28.8199796,24.39 28.8199796,23.7675 C28.8199796,23.145 28.3133061,22.6425 27.6873265,22.6425" id="Fill-90"></path>
                                <path d="M23.1567143,22.6425 C22.5307347,22.6425 22.0240612,23.145 22.0240612,23.7675 C22.0240612,24.39 22.5307347,24.8925 23.1567143,24.8925 C23.7826939,24.8925 24.2893673,24.39 24.2893673,23.7675 C24.2893673,23.145 23.7826939,22.6425 23.1567143,22.6425" id="Fill-91"></path>
                                <path d="M9.56487755,18.1425 C8.93889796,18.1425 8.43222449,18.645 8.43222449,19.2675 C8.43222449,19.89 8.93889796,20.3925 9.56487755,20.3925 C10.1908571,20.3925 10.6975306,19.89 10.6975306,19.2675 C10.6975306,18.645 10.1908571,18.1425 9.56487755,18.1425" id="Fill-92"></path>
                            </g>
                        </g>
                    </g>
                </g>
            </g>
        </g>
    </g>
</svg>